#!OML:ASF I:\Actors\actors\Patient Classification 2\Patient 1\Session 1\actor1.ASF
:FULLY-SPECIFIED
:DEGREES
754
root -0.679064 18.6384 6.0251 1.36452 -4.08812 -2.49418
lowerback 1.66062 1.04903 2.85892
upperback -2.27895 1.50232 0.33302
thorax -3.21067 0.683822 -1.32453
lowerneck -13.253 -2.19427 -0.83987
upperneck 17.9177 -3.36596 2.59036
head 7.77343 -1.4132 0.636683
rclavicle -5.28643e-015 2.98177e-016
rhumerus -55.3222 -17.6313 -71.8824
rradius 52.8327
rwrist -13.7604
rhand -13.6789 -47.3431
rfingers 7.12502
rthumb 12.4387 -76.9529
lclavicle -5.28643e-015 2.98177e-016
lhumerus -48.2018 3.58806 83.6015
lradius 56.2484
lwrist 24.5847
lhand -16.3456 -14.2256
lfingers 7.12502
lthumb 9.86671 15.5232
rfemur 0 0 0
rtibia 0
rfoot 0 0
rtoes 0
lfemur -1.83412 -5.71754 -12.2618
ltibia 21.6363
lfoot -25.7706 16.5043
ltoes -54.9593
755
root -0.683224 18.6363 6.02158 1.32501 -4.17691 -2.52927
lowerback 1.60138 1.02999 2.84598
upperback -2.21192 1.47354 0.35172
thorax -3.10995 0.672132 -1.29478
lowerneck -13.1851 -2.13989 -0.7551
upperneck 17.961 -3.27486 2.4121
head 7.76914 -1.38152 0.574323
rclavicle -1.16755e-014 3.27995e-015
rhumerus -55.3037 -18.1569 -71.7706
rradius 50.81
rwrist -11.8421
rhand -13.6304 -46.8656
rfingers 7.12502
rthumb 12.4855 -76.4726
lclavicle -1.16755e-014 3.27995e-015
lhumerus -48.3613 3.9217 83.9736
lradius 54.8357
lwrist 22.842
lhand -15.8378 -15.273
lfingers 7.12502
lthumb 10.3567 14.452
rfemur 0 0 0
rtibia 0
rfoot 0 0
rtoes 0
lfemur -1.7531 -5.73178 -12.2275
ltibia 21.5971
lfoot -25.7967 16.5616
ltoes -54.9318
756
root -0.686673 18.6343 6.01885 1.2765 -4.30659 -2.5513
lowerback 1.58565 1.05314 2.84323
upperback -2.1662 1.50272 0.347686
thorax -3.05252 0.687961 -1.29765
lowerneck -12.881 -1.99968 -0.744297
upperneck 17.7576 -3.08979 2.47145
head 7.64547 -1.29177 0.614995
rclavicle -1.63003e-014 1.88845e-015
rhumerus -55.407 -18.6871 -71.639
rradius 49.033
rwrist -10.0598
rhand -13.5987 -46.3449
rfingers 7.12502
rthumb 12.516 -75.95
lclavicle -1.63003e-014 1.88845e-015
lhumerus -48.4602 4.34166 84.1987
lradius 53.1166
lwrist 20.93
lhand -15.2693 -17.6773
lfingers 7.12502
lthumb 10.905 12.0195
rfemur 0 0 0
rtibia 0
rfoot 0 0
rtoes 0
lfemur -1.64893 -5.83889 -12.235
ltibia 21.5732
lfoot -25.9283 16.7102
ltoes -54.8138
757
root -0.691235 18.6341 6.01586 1.2456 -4.41209 -2.55528
lowerback 1.59141 1.08061 2.78381
upperback -2.14305 1.53755 0.35743
thorax -3.03203 0.707319 -1.25561
lowerneck -12.6751 -1.9114 -0.766693
upperneck 17.6611 -2.96335 2.48508
head 7.57535 -1.23448 0.638339
rclavicle -2.75845e-014 3.77691e-015
rhumerus -55.5997 -19.0454 -71.5577
rradius 47.5514
rwrist -8.51389
rhand -13.6759 -46.0144
rfingers 7.12502
rthumb 12.4416 -75.6241
lclavicle -2.75845e-014 3.77691e-015
lhumerus -48.5518 4.56691 84.6519
lradius 52.3424
lwrist 19.882
lhand -15.587 -16.5066
lfingers 7.12502
lthumb 10.5985 13.2061
rfemur 0 0 0
rtibia 0
rfoot 0 0
rtoes 0
lfemur -1.57993 -5.93953 -12.2513
ltibia 21.5639
lfoot -26.0586 16.8129
ltoes -54.6902
758
root -0.695674 18.6357 6.01181 1.24817 -4.47427 -2.5874
lowerback 1.57394 1.09664 2.74629
upperback -2.12235 1.55758 0.387215
thorax -3.00168 0.719136 -1.20415
lowerneck -12.5561 -1.88115 -0.767148
upperneck 17.6531 -2.89994 2.37592
head 7.5486 -1.21565 0.610265
rclavicle -8.21229e-015 5.66536e-015
rhumerus -55.8017 -19.1694 -71.5722
rradius 46.3071
rwrist -7.2989
rhand -13.794 -45.6707
rfingers 7.12502
rthumb 12.3278 -75.2872
lclavicle -8.21229e-015 5.66536e-015
lhumerus -48.5479 4.8264 85.0029
lradius 51.1543
lwrist 18.6539
lhand -15.7521 -16.8249
lfingers 7.12502
lthumb 10.4393 12.896
rfemur 0 0 0
rtibia 0
rfoot 0 0
rtoes 0
lfemur -1.57335 -5.96554 -12.2121
ltibia 21.5637
lfoot -26.0791 16.8417
ltoes -54.7096
759
root -0.699112 18.6368 6.00965 1.23671 -4.52936 -2.64441
lowerback 1.55498 1.10318 2.73756
upperback -2.09163 1.566 0.43326
thorax -2.96042 0.724922 -1.15147
lowerneck -12.4558 -1.86031 -0.732513
upperneck 17.6389 -2.84738 2.21947
head 7.52218 -1.20392 0.559641
rclavicle -2.49506e-014 -4.96962e-015
rhumerus -56.0151 -19.1785 -71.6406
rradius 45.3017
rwrist -6.21351
rhand -13.8892 -45.3446
rfingers 7.12502
rthumb 12.2359 -74.9667
lclavicle -2.49506e-014 -4.96962e-015
lhumerus -48.4699 5.09595 85.2681
lradius 49.6856
lwrist 17.3609
lhand -15.6976 -18.258
lfingers 7.12502
lthumb 10.4919 11.4602
rfemur 0 0 0
rtibia 0
rfoot 0 0
rtoes 0
lfemur -1.55766 -5.97042 -12.1493
ltibia 21.5785
lfoot -26.0396 16.9675
ltoes -54.8433
760
root -0.702313 18.6366 6.00951 1.19574 -4.56624 -2.69354
lowerback 1.54496 1.09731 2.72636
upperback -2.05184 1.55791 0.480471
thorax -2.91558 0.72265 -1.09567
lowerneck -12.5304 -1.87656 -0.679267
upperneck 17.8115 -2.84044 1.99216
head 7.58756 -1.21635 0.476085
rclavicle -5.45415e-015 -4.96962e-016
rhumerus -56.2325 -19.0925 -71.7812
rradius 44.5245
rwrist -5.11885
rhand -13.8558 -45.0563
rfingers 7.12502
rthumb 12.2681 -74.6764
lclavicle -5.45415e-015 -4.96962e-016
lhumerus -48.3613 5.33777 85.5294
lradius 48.3218
lwrist 16.306
lhand -15.4865 -19.4168
lfingers 7.12502
lthumb 10.6955 10.2909
rfemur 0 0 0
rtibia 0
rfoot 0 0
rtoes 0
lfemur -1.51684 -5.94737 -12.092
ltibia 21.6094
lfoot -26.0344 17.0564
ltoes -54.9307
761
root -0.704846 18.6361 6.00904 1.15489 -4.57079 -2.74759
lowerback 1.53627 1.09012 2.74406
upperback -2.02584 1.54873 0.509335
thorax -2.88456 0.718662 -1.07505
lowerneck -12.5625 -1.86198 -0.596137
upperneck 18.008 -2.80152 1.78635
head 7.65295 -1.2098 0.398043
rclavicle 5.37961e-015 -6.85807e-015
rhumerus -56.47 -18.8059 -72.0949
rradius 43.9801
rwrist -4.14031
rhand -13.709 -44.6937
rfingers 7.12502
rthumb 12.4096 -74.3054
lclavicle 5.37961e-015 -6.85807e-015
lhumerus -48.2454 5.29144 85.9372
lradius 47.5509
lwrist 15.4568
lhand -15.437 -18.1486
lfingers 7.12502
lthumb 10.7433 11.5567
rfemur 0 0 0
rtibia 0
rfoot 0 0
rtoes 0
lfemur -1.48314 -5.90987 -12.0203
ltibia 21.6377
lfoot -26.0569 17.0012
ltoes -54.9308
762
root -0.707649 18.6357 6.0079 1.11658 -4.54708 -2.79587
lowerback 1.54109 1.06942 2.74262
upperback -2.01174 1.52153 0.532023
thorax -2.87441 0.705646 -1.04985
lowerneck -12.2604 -1.73482 -0.543692
upperneck 17.8743 -2.63372 1.78425
head 7.5522 -1.12958 0.408931
rclavicle -1.75179e-015 -1.27222e-014
rhumerus -56.6963 -18.2966 -72.6131
rradius 43.6702
rwrist -3.3077
rhand -13.8625 -44.2242
rfingers 7.12502
rthumb 12.2617 -73.8447
lclavicle -1.75179e-015 -1.27222e-014
lhumerus -48.1536 4.99765 86.4193
lradius 46.6337
lwrist 14.819
lhand -15.4966 -17.9195
lfingers 7.12502
lthumb 10.6858 11.7887
rfemur 0 0 0
rtibia 0
rfoot 0 0
rtoes 0
lfemur -1.45332 -5.90976 -11.9541
ltibia 21.651
lfoot -26.0856 16.93
ltoes -54.8955
763
root -0.711222 18.6349 6.00746 1.06609 -4.52003 -2.77992
lowerback 1.5345 1.04209 2.66609
upperback -1.97383 1.482 0.539242
thorax -2.83501 0.688508 -0.997558
lowerneck -12.0222 -1.6406 -0.532968
upperneck 17.7513 -2.50651 1.80035
head 7.46792 -1.0692 0.427513
rclavicle 1.68315e-014 4.47266e-015
rhumerus -56.8672 -17.6633 -73.2613
rradius 43.523
rwrist -2.53302
rhand -14.372 -43.698
rfingers 7.12502
rthumb 11.7704 -73.3473
lclavicle 1.68315e-014 4.47266e-015
lhumerus -48.021 4.61552 86.886
lradius 45.6696
lwrist 13.8101
lhand -15.521 -18.2742
lfingers 7.12502
lthumb 10.6622 11.4352
rfemur 0 0 0
rtibia 0
rfoot 0 0
rtoes 0
lfemur -1.40521 -5.94429 -11.9653
ltibia 21.6529
lfoot -26.1095 16.8975
ltoes -54.8596
764
root -0.714297 18.6338 6.00663 1.02499 -4.49729 -2.74429
lowerback 1.50423 1.02057 2.58571
upperback -1.92276 1.44886 0.537764
thorax -2.76823 0.674945 -0.95167
lowerneck -12.0111 -1.61445 -0.530183
upperneck 17.831 -2.46146 1.74223
head 7.49063 -1.05237 0.412477
rclavicle -1.16103e-014 -7.15625e-015
rhumerus -56.9672 -16.9802 -73.9646
rradius 43.4339
rwrist -1.69413
rhand -14.6672 -43.2958
rfingers 7.12502
rthumb 11.4857 -72.9611
lclavicle -1.16103e-014 -7.15625e-015
lhumerus -47.8454 4.21736 87.2782
lradius 44.6231
lwrist 12.2639
lhand -15.266 -19.2616
lfingers 7.12502
lthumb 10.9082 10.435
rfemur 0 0 0
rtibia 0
rfoot 0 0
rtoes 0
lfemur -1.36557 -5.99313 -12.0043
ltibia 21.6442
lfoot -26.0905 16.9319
ltoes -54.8797
